<svg width="20" height="16" viewBox="0 0 20 16" fill="none" xmlns="http://www.w3.org/2000/svg">
<path d="M10 0H3C1.34 0 0 1.34 0 3V11C0 12.66 1.34 14 3 14L2.23 14.77C1.95 15.05 1.95 15.49 2.23 15.77C2.51 16.05 2.95 16.05 3.23 15.77L5 14H7V9H2.5C2.22 9 2 8.78 2 8.5V2.5C2 2.22 2.22 2 2.5 2H10.5C10.78 2 11 2.22 11 2.5V4H13V3C13 1.34 11.66 0 10 0ZM3 10C3.55 10 4 10.45 4 11C4 11.55 3.55 12 3 12C2.45 12 2 11.55 2 11C2 10.45 2.45 10 3 10ZM18.57 5.66C18.43 5.26 18.05 5 17.6 5H10.41C9.95 5 9.58 5.26 9.43 5.66L8.01 9.77V15.01C8.01 15.56 8.46 16 9.01 16C9.56 16 10.01 15.55 10.01 15V14H18.01V15C18.01 15.55 18.46 16 19.01 16C19.56 16 20 15.56 20.01 15.01L20 9.77L18.57 5.66ZM10.77 6H17.25C17.46 6 17.65 6.14 17.72 6.34L18.41 8.34C18.52 8.66 18.28 9 17.94 9H10.09C9.75 9 9.51 8.66 9.62 8.34L10.31 6.34C10.36 6.14 10.55 6 10.77 6ZM10 12C9.45 12 9 11.55 9 11C9 10.45 9.45 10 10 10C10.55 10 11 10.45 11 11C11 11.55 10.55 12 10 12ZM18 12C17.45 12 17 11.55 17 11C17 10.45 17.45 10 18 10C18.55 10 19 10.45 19 11C19 11.55 18.55 12 18 12Z" fill="#333333"/>
</svg>
