<svg width="24" height="24" viewBox="0 0 24 24" fill="none" xmlns="http://www.w3.org/2000/svg">
<path d="M1.99967 18.6666H5.33301V21.9999C5.33301 22.9166 6.08301 23.6666 6.99967 23.6666C7.91634 23.6666 8.66634 22.9166 8.66634 21.9999V16.9999C8.66634 16.0833 7.91634 15.3333 6.99967 15.3333H1.99967C1.08301 15.3333 0.333008 16.0833 0.333008 16.9999C0.333008 17.9166 1.08301 18.6666 1.99967 18.6666ZM5.33301 5.33325H1.99967C1.08301 5.33325 0.333008 6.08325 0.333008 6.99992C0.333008 7.91659 1.08301 8.66659 1.99967 8.66659H6.99967C7.91634 8.66659 8.66634 7.91659 8.66634 6.99992V1.99992C8.66634 1.08325 7.91634 0.333252 6.99967 0.333252C6.08301 0.333252 5.33301 1.08325 5.33301 1.99992V5.33325ZM16.9997 23.6666C17.9163 23.6666 18.6663 22.9166 18.6663 21.9999V18.6666H21.9997C22.9163 18.6666 23.6663 17.9166 23.6663 16.9999C23.6663 16.0833 22.9163 15.3333 21.9997 15.3333H16.9997C16.083 15.3333 15.333 16.0833 15.333 16.9999V21.9999C15.333 22.9166 16.083 23.6666 16.9997 23.6666ZM18.6663 5.33325V1.99992C18.6663 1.08325 17.9163 0.333252 16.9997 0.333252C16.083 0.333252 15.333 1.08325 15.333 1.99992V6.99992C15.333 7.91659 16.083 8.66659 16.9997 8.66659H21.9997C22.9163 8.66659 23.6663 7.91659 23.6663 6.99992C23.6663 6.08325 22.9163 5.33325 21.9997 5.33325H18.6663Z" fill="#333333"/>
</svg>
