<svg width="96" height="96" viewBox="0 0 96 96" fill="none" xmlns="http://www.w3.org/2000/svg">
<rect width="96" height="96" rx="48" fill="url(#paint0_linear_7177_3044)"/>
<g clip-path="url(#clip0_7177_3044)">
<path d="M64 32H32C29.8 32 28 33.8 28 36V60C28 62.2 29.8 64 32 64H64C66.2 64 68 62.2 68 60V36C68 33.8 66.2 32 64 32ZM63.2 40.5L50.12 48.68C48.82 49.5 47.18 49.5 45.88 48.68L32.8 40.5C32.3 40.18 32 39.64 32 39.06C32 37.72 33.46 36.92 34.6 37.62L48 46L61.4 37.62C62.54 36.92 64 37.72 64 39.06C64 39.64 63.7 40.18 63.2 40.5Z" fill="white"/>
</g>
<defs>
<linearGradient id="paint0_linear_7177_3044" x1="48" y1="0" x2="48" y2="96" gradientUnits="userSpaceOnUse">
<stop stop-color="#6CC790"/>
<stop offset="1" stop-color="#1BB176"/>
</linearGradient>
<clipPath id="clip0_7177_3044">
<rect width="48" height="48" fill="white" transform="translate(24 24)"/>
</clipPath>
</defs>
</svg>
