<svg width="22" height="18" viewBox="0 0 22 18" fill="none" xmlns="http://www.w3.org/2000/svg">
<path d="M20 0H2C0.9 0 0 0.9 0 2V16C0 17.1 0.9 18 2 18H20C21.1 18 22 17.1 22 16V2C22 0.9 21.1 0 20 0ZM19 16H3C2.45 16 2 15.55 2 15V3C2 2.45 2.45 2 3 2H19C19.55 2 20 2.45 20 3V15C20 15.55 19.55 16 19 16ZM7.05 12.54C6.72 10.64 8.16 9 10 9C10.35 9 10.69 9.07 11 9.18V5C11 3.9 11.9 3 13 3H15C15.55 3 16 3.45 16 4C16 4.55 15.55 5 15 5H13V12.03C12.98 13.85 11.34 15.29 9.45 14.95C8.24 14.74 7.25 13.75 7.05 12.54Z" fill="#333333"/>
</svg>
