<svg width="20" height="16" viewBox="0 0 20 16" fill="none" xmlns="http://www.w3.org/2000/svg">
<path d="M19.6 14.1998L11 7.74977V6.83977C12.65 6.34977 13.8 4.66977 13.43 2.78977C13.17 1.47977 12.13 0.389771 10.82 0.0897706C9.06001 -0.310229 7.45002 0.619771 6.80002 2.06977C6.50002 2.73977 6.98002 3.49977 7.71002 3.49977C8.10002 3.49977 8.46002 3.27977 8.61001 2.92977C8.84001 2.37977 9.37002 1.99977 10 1.99977C10.83 1.99977 11.5 2.66977 11.5 3.49977C11.5 4.33977 10.81 5.01977 9.97002 4.99977C9.43002 4.98977 9.00002 5.44977 9.00002 5.98977V7.74977L0.400015 14.1998C-0.369985 14.7798 0.0400153 15.9998 1.00002 15.9998H10H19C19.96 15.9998 20.37 14.7798 19.6 14.1998ZM4.00002 13.9998L10 9.49977L16 13.9998H4.00002Z" fill="#333333"/>
</svg>
