<svg width="19" height="21" viewBox="0 0 19 21" fill="none" xmlns="http://www.w3.org/2000/svg">
<path d="M2 10.4998V14.4998C2 15.3298 2.67 15.9998 3.5 15.9998C4.33 15.9998 5 15.3298 5 14.4998V10.4998C5 9.66982 4.33 8.99982 3.5 8.99982C2.67 8.99982 2 9.66982 2 10.4998ZM8 10.4998V14.4998C8 15.3298 8.67 15.9998 9.5 15.9998C10.33 15.9998 11 15.3298 11 14.4998V10.4998C11 9.66982 10.33 8.99982 9.5 8.99982C8.67 8.99982 8 9.66982 8 10.4998ZM1.5 20.9998H17.5C18.33 20.9998 19 20.3298 19 19.4998C19 18.6698 18.33 17.9998 17.5 17.9998H1.5C0.67 17.9998 0 18.6698 0 19.4998C0 20.3298 0.67 20.9998 1.5 20.9998ZM14 10.4998V14.4998C14 15.3298 14.67 15.9998 15.5 15.9998C16.33 15.9998 17 15.3298 17 14.4998V10.4998C17 9.66982 16.33 8.99982 15.5 8.99982C14.67 8.99982 14 9.66982 14 10.4998ZM8.57 0.489824L0.67 4.64982C0.26 4.85982 0 5.28982 0 5.74982C0 6.43982 0.56 6.99982 1.25 6.99982H17.76C18.44 6.99982 19 6.43982 19 5.74982C19 5.28982 18.74 4.85982 18.33 4.64982L10.43 0.489824C9.85 0.179824 9.15 0.179824 8.57 0.489824Z" fill="#333333"/>
</svg>
