<svg width="21" height="20" viewBox="0 0 21 20" fill="none" xmlns="http://www.w3.org/2000/svg">
<path d="M18.5 4H14.5V2C14.5 0.9 13.6 0 12.5 0H8.5C7.4 0 6.5 0.9 6.5 2V4H2.5C1.4 4 0.5 4.9 0.5 6V18C0.5 19.1 1.4 20 2.5 20H18.5C19.6 20 20.5 19.1 20.5 18V6C20.5 4.9 19.6 4 18.5 4ZM8.5 2H12.5V4H8.5V2ZM13.5 13H11.5V15C11.5 15.55 11.05 16 10.5 16C9.95 16 9.5 15.55 9.5 15V13H7.5C6.95 13 6.5 12.55 6.5 12C6.5 11.45 6.95 11 7.5 11H9.5V9C9.5 8.45 9.95 8 10.5 8C11.05 8 11.5 8.45 11.5 9V11H13.5C14.05 11 14.5 11.45 14.5 12C14.5 12.55 14.05 13 13.5 13Z" fill="#333333"/>
</svg>
