<svg width="24" height="24" viewBox="0 0 24 24" fill="none" xmlns="http://www.w3.org/2000/svg">
<g clip-path="url(#clip0_7153_2128)">
<path d="M17 2H7C4.23858 2 2 4.23858 2 7V17C2 19.7614 4.23858 22 7 22H17C19.7614 22 22 19.7614 22 17V7C22 4.23858 19.7614 2 17 2Z" stroke="#333333" stroke-width="1.5" stroke-linecap="round" stroke-linejoin="round"/>
<path d="M16 11.3703C16.1234 12.2025 15.9813 13.0525 15.5938 13.7993C15.2063 14.5461 14.5931 15.1517 13.8416 15.53C13.0901 15.9082 12.2384 16.0399 11.4078 15.9062C10.5771 15.7726 9.80976 15.3804 9.21484 14.7855C8.61991 14.1905 8.22773 13.4232 8.09406 12.5925C7.9604 11.7619 8.09206 10.9102 8.47032 10.1587C8.84858 9.40716 9.45418 8.79404 10.201 8.40654C10.9478 8.01904 11.7978 7.87689 12.63 8.0003C13.4789 8.12619 14.2648 8.52176 14.8717 9.12861C15.4785 9.73545 15.8741 10.5214 16 11.3703Z" stroke="#333333" stroke-width="1.5" stroke-linecap="round" stroke-linejoin="round"/>
<path d="M17.5 6.5H17.51" stroke="#333333" stroke-width="1.5" stroke-linecap="round" stroke-linejoin="round"/>
</g>
<defs>
<clipPath id="clip0_7153_2128">
<rect width="24" height="24" fill="white"/>
</clipPath>
</defs>
</svg>
