<svg width="96" height="96" viewBox="0 0 96 96" fill="none" xmlns="http://www.w3.org/2000/svg">
<rect width="96" height="96" rx="48" fill="url(#paint0_linear_7177_2714)"/>
<g clip-path="url(#clip0_7177_2714)">
<path d="M48 28C40.26 28 34 34.26 34 42C34 50.34 42.84 61.84 46.48 66.22C47.28 67.18 48.74 67.18 49.54 66.22C53.16 61.84 62 50.34 62 42C62 34.26 55.74 28 48 28ZM48 47C45.24 47 43 44.76 43 42C43 39.24 45.24 37 48 37C50.76 37 53 39.24 53 42C53 44.76 50.76 47 48 47Z" fill="white"/>
</g>
<defs>
<linearGradient id="paint0_linear_7177_2714" x1="48" y1="0" x2="48" y2="96" gradientUnits="userSpaceOnUse">
<stop stop-color="#6CC790"/>
<stop offset="1" stop-color="#1BB176"/>
</linearGradient>
<clipPath id="clip0_7177_2714">
<rect width="48" height="48" fill="white" transform="translate(24 24)"/>
</clipPath>
</defs>
</svg>
