<svg width="16" height="18" viewBox="0 0 16 18" fill="none" xmlns="http://www.w3.org/2000/svg">
<path d="M6.8 0.899941L0.8 5.39994C0.3 5.77994 0 6.36994 0 6.99994V15.9999C0 17.0999 0.9 17.9999 2 17.9999H14C15.1 17.9999 16 17.0999 16 15.9999V6.99994C16 6.36994 15.7 5.77994 15.2 5.39994L9.2 0.899941C8.49 0.369941 7.51 0.369941 6.8 0.899941ZM5.75 9.49994C6.44 9.49994 7 10.0599 7 10.7499C7 11.4399 6.44 11.9999 5.75 11.9999C5.06 11.9999 4.5 11.4399 4.5 10.7499C4.5 10.0599 5.06 9.49994 5.75 9.49994ZM12.5 14.9999C12.22 14.9999 12 14.7799 12 14.4999V13.4999H4V14.4999C4 14.7799 3.78 14.9999 3.5 14.9999C3.22 14.9999 3 14.7799 3 14.4999V8.49994C3 8.21994 3.22 7.99994 3.5 7.99994C3.78 7.99994 4 8.21994 4 8.49994V12.4999H7.5V9.49994C7.5 9.21994 7.72 8.99994 8 8.99994H11C12.1 8.99994 13 9.89994 13 10.9999V14.4999C13 14.7799 12.78 14.9999 12.5 14.9999Z" fill="#333333"/>
</svg>
