<svg width="21" height="18" viewBox="0 0 21 18" fill="none" xmlns="http://www.w3.org/2000/svg">
<path d="M18.5 15.9998H1.49998C0.949977 15.9998 0.499977 16.4498 0.499977 16.9998C0.499977 17.5498 0.949977 17.9998 1.49998 17.9998H18.5C19.05 17.9998 19.5 17.5498 19.5 16.9998C19.5 16.4498 19.05 15.9998 18.5 15.9998ZM20.07 6.63979C19.85 5.83979 19.03 5.36979 18.23 5.57979L12.92 6.99979L6.45998 0.979787C6.18998 0.719787 5.79998 0.629787 5.43998 0.729787C4.75998 0.919787 4.43998 1.69979 4.78998 2.30979L8.22998 8.26979L3.25998 9.59979L1.68998 8.35979C1.43998 8.16979 1.11998 8.09979 0.809977 8.17979L0.479977 8.26979C0.159977 8.34979 0.00997736 8.71979 0.179977 8.99979L2.05998 12.2498C2.28998 12.6398 2.74998 12.8298 3.17998 12.7198L19 8.47979C19.8 8.25979 20.28 7.43979 20.07 6.63979Z" fill="#333333"/>
</svg>
